<svg id="Layer_35" enable-background="new 0 0 64 64" height="512" viewBox="0 0 64 64" width="512" xmlns="http://www.w3.org/2000/svg" xmlns:xlink="http://www.w3.org/1999/xlink"><linearGradient id="SVGID_1_" gradientUnits="userSpaceOnUse" x1="32" x2="32" y1="63" y2="1"><stop offset="0" stop-color="#9f2fff"/><stop offset="1" stop-color="#0bb1d3"/></linearGradient><path d="m24 59h2v2h-2zm-3.549-13.207 3.549 2.729v8.478h2v-9.462l-4.33-3.331zm42.549-41.793c0 1.654-1.346 3-3 3-.565 0-1.088-.166-1.539-.439l-6.537 4.358c3.182 4.196 5.076 9.421 5.076 15.081v13.721l-3.063 1.021-1.024 11.258h-7.913v11h-2v-11.059c-4.493-.499-8-4.316-8-8.941h2c0 3.859 3.141 7 7 7h7.087l.977-10.742 2.936-.979v-12.279c0-5.251-1.772-10.093-4.745-13.968l-4.907 3.272 1.054 1.757c.194-.04.393-.061.598-.061 1.654 0 3 1.346 3 3s-1.346 3-3 3c-.17 0-.333-.023-.496-.05l-2.264 4.075c.467.529.76 1.216.76 1.975 0 1.654-1.346 3-3 3-.856 0-1.624-.364-2.171-.941l-3.852 1.712c.006.077.023.151.023.229 0 1.302-.839 2.402-2 2.816v4.184h-2v-4.184c-1.161-.414-2-1.514-2-2.816 0-1.654 1.346-3 3-3 .855 0 1.624.364 2.171.94l3.853-1.712c-.007-.077-.024-.15-.024-.228 0-.746.284-1.421.736-1.947l-1.204-2.107c-.173.031-.35.054-.532.054-1.475 0-2.698-1.072-2.947-2.477l-6.442-1.074c-.389.698-1.042 1.222-1.83 1.436l-.567 7.378c1.05.466 1.786 1.515 1.786 2.737 0 1.302-.839 2.402-2 2.816v4.184h-2v-4.184c-1.161-.414-2-1.514-2-2.816 0-.311.061-.606.149-.888l-3.489-2.617c-.475.318-1.046.505-1.66.505-1.654 0-3-1.346-3-3 0-1.407.977-2.582 2.286-2.905l.439-4.391c-1.016-.481-1.725-1.507-1.725-2.704 0-.42.088-.819.245-1.183l-2.527-2.333c-2.348 3.606-3.718 7.903-3.718 12.516v2.183c0 7.092 3.355 13.906 8.977 18.229l4.023 3.096v13.492h-2v-12.508l-3.242-2.494c-6.111-4.7-9.758-12.107-9.758-19.815v-2.183c0-5.137 1.559-9.916 4.226-13.892l-5.89-5.437c-.404.204-.853.329-1.336.329-1.654 0-3-1.346-3-3s1.346-3 3-3 3 1.346 3 3c0 .441-.101.856-.273 1.234l5.69 5.252c4.584-5.773 11.656-9.486 19.583-9.486 7.404 0 14.063 3.238 18.644 8.369l6.542-4.361c-.113-.317-.186-.653-.186-1.008 0-1.654 1.346-3 3-3s3 1.346 3 3zm-59 1c.552 0 1-.448 1-1s-.448-1-1-1-1 .448-1 1 .448 1 1 1zm30 28c0-.552-.448-1-1-1s-1 .448-1 1 .448 1 1 1 1-.448 1-1zm-5.571-20.043-.896 4.478c.089.053.174.109.256.171l9.909-6.606h-6.882c-.368 1.031-1.276 1.796-2.387 1.957zm15.571 7.043c0-.723.268-1.378.695-1.897l-3.098-5.163c-.1.02-.207.021-.31.031l-1.632 6.531c.809.537 1.345 1.456 1.345 2.498 0 .746-.284 1.421-.736 1.947l1.204 2.107c.173-.031.35-.054.532-.054.169 0 .333.023.495.05l2.264-4.076c-.466-.529-.759-1.215-.759-1.974zm-6.287-.971 1.632-6.531c-.047-.031-.088-.07-.133-.104l-10.312 6.874c.018.069.035.137.048.208l6.442 1.074c.467-.839 1.32-1.424 2.323-1.521zm4.287-9.029c0-.552-.448-1-1-1s-1 .448-1 1 .448 1 1 1 1-.448 1-1zm-13 0c0-.552-.448-1-1-1s-1 .448-1 1 .448 1 1 1 1-.448 1-1zm-8.12 6.205c.07.255.12.518.12.795 0 1.407-.977 2.582-2.285 2.905l-.439 4.391c.116.055.23.114.337.183l4.552-3.541c-.099-.297-.165-.608-.165-.938 0-1.508 1.121-2.746 2.571-2.957l.896-4.478c-.069-.042-.139-.081-.204-.128zm3.339 13.911.567-7.378c-.139-.062-.272-.135-.399-.217l-4.552 3.541c.099.297.165.608.165.938 0 .311-.061.606-.15.889l3.488 2.616c.266-.177.565-.303.881-.389zm-6.219-14.116c-.552 0-1 .448-1 1s.448 1 1 1 1-.448 1-1-.448-1-1-1zm-1 12c.552 0 1-.448 1-1s-.448-1-1-1-1 .448-1 1 .448 1 1 1zm9 5c0-.552-.448-1-1-1s-1 .448-1 1 .448 1 1 1 1-.448 1-1zm1-13c0-.552-.448-1-1-1s-1 .448-1 1 .448 1 1 1 1-.448 1-1zm11 3c.552 0 1-.448 1-1s-.448-1-1-1-1 .448-1 1 .448 1 1 1zm5 6c0-.552-.448-1-1-1s-1 .448-1 1 .448 1 1 1 1-.448 1-1zm4-10c-.552 0-1 .448-1 1s.448 1 1 1 1-.448 1-1-.448-1-1-1zm1.965-8.512c-4.208-4.599-10.255-7.488-16.965-7.488-7.347 0-13.896 3.467-18.109 8.846l2.72 2.511c.417-.22.885-.357 1.389-.357.649 0 1.246.212 1.737.563l5.383-3.768c-.07-.255-.12-.518-.12-.795 0-1.654 1.346-3 3-3 1.302 0 2.402.839 2.816 2h7.369c.413-1.161 1.513-2 2.815-2 1.654 0 3 1.346 3 3 0 .723-.268 1.379-.696 1.897l1.013 1.689zm12.035-6.488c0-.552-.448-1-1-1s-1 .448-1 1 .448 1 1 1 1-.448 1-1z" fill="url(#SVGID_1_)"/></svg>